<svg width="120" height="32" viewBox="0 0 120 32" fill="none" xmlns="http://www.w3.org/2000/svg">
<g clip-path="url(#clip0)">
<path d="M6.99 27.51C5.72067 27.51 4.49667 27.34 3.318 27C2.13933 26.6373 1.15333 26.2067 0.36 25.708L0.564 20.948H2.672L3.352 24.96C3.87333 25.2547 4.406 25.47 4.95 25.606C5.51667 25.742 6.16267 25.81 6.888 25.81C8.49733 25.81 9.778 25.4587 10.73 24.756C11.682 24.0307 12.158 23.0107 12.158 21.696C12.158 20.608 11.818 19.7693 11.138 19.18C10.4807 18.568 9.42667 17.9787 7.976 17.412L6.65 16.868C4.90467 16.188 3.488 15.3153 2.4 14.25C1.33467 13.162 0.802 11.7567 0.802 10.034C0.802 8.71933 1.13067 7.59733 1.788 6.668C2.468 5.73866 3.386 5.02467 4.542 4.526C5.698 4.00467 7.00133 3.744 8.452 3.744C9.58533 3.744 10.6167 3.90267 11.546 4.22C12.4753 4.53733 13.3027 4.968 14.028 5.512L13.824 9.966H11.75L11.036 6.124C10.1973 5.67067 9.268 5.444 8.248 5.444C6.956 5.444 5.868 5.77267 4.984 6.43C4.1 7.06467 3.658 8.01667 3.658 9.286C3.658 10.3287 3.98667 11.19 4.644 11.87C5.324 12.55 6.276 13.128 7.5 13.604L8.86 14.114C11.0813 14.9753 12.668 15.95 13.62 17.038C14.572 18.1033 15.048 19.4407 15.048 21.05C15.048 22.3873 14.6967 23.5433 13.994 24.518C13.314 25.47 12.3733 26.2067 11.172 26.728C9.97067 27.2493 8.57667 27.51 6.99 27.51ZM17.0864 27V25.776L19.6364 25.3C19.6591 24.4387 19.6704 23.5093 19.6704 22.512C19.6931 21.492 19.7044 20.608 19.7044 19.86V4.934L16.9164 4.594V3.404L22.1184 1.874L22.5944 2.146L22.4584 6.974V13.536C23.2971 12.6067 24.2717 11.8587 25.3824 11.292C26.4931 10.7027 27.5924 10.408 28.6804 10.408C30.1537 10.408 31.2417 10.9067 31.9444 11.904C32.6697 12.8787 33.0324 14.4767 33.0324 16.698V19.86C33.0324 20.6307 33.0324 21.5147 33.0324 22.512C33.0551 23.5093 33.0777 24.4387 33.1004 25.3L35.4804 25.776V27H27.5924V25.776L30.0744 25.334C30.0971 24.4727 30.1084 23.5433 30.1084 22.546C30.1311 21.526 30.1424 20.6307 30.1424 19.86V16.97C30.1424 15.406 29.9271 14.3293 29.4964 13.74C29.0657 13.1507 28.3517 12.856 27.3544 12.856C26.5157 12.856 25.7224 13.026 24.9744 13.366C24.2264 13.706 23.4217 14.2727 22.5604 15.066V19.86C22.5604 20.608 22.5604 21.492 22.5604 22.512C22.5831 23.5093 22.6057 24.4387 22.6284 25.3L24.9744 25.776V27H17.0864ZM45.6323 11.972C44.9977 11.972 44.3517 12.1533 43.6943 12.516C43.0597 12.8787 42.5043 13.4567 42.0283 14.25C41.575 15.0433 41.2803 16.0973 41.1443 17.412H47.3323C48.1483 17.412 48.681 17.242 48.9303 16.902C49.2023 16.562 49.3383 16.1427 49.3383 15.644C49.3383 14.9867 49.1683 14.386 48.8283 13.842C48.511 13.2753 48.069 12.822 47.5023 12.482C46.9583 12.142 46.335 11.972 45.6323 11.972ZM45.5983 27.442C43.309 27.442 41.473 26.7053 40.0903 25.232C38.7077 23.736 38.0163 21.6847 38.0163 19.078C38.0163 17.3327 38.3677 15.814 39.0703 14.522C39.7957 13.23 40.7477 12.2213 41.9263 11.496C43.1277 10.7707 44.431 10.408 45.8363 10.408C47.015 10.408 48.0803 10.6687 49.0323 11.19C49.9843 11.7113 50.7437 12.4593 51.3103 13.434C51.877 14.386 52.1603 15.5533 52.1603 16.936C52.1603 17.3213 52.1377 17.684 52.0923 18.024C52.047 18.3413 51.9903 18.6133 51.9223 18.84H41.0763C41.1217 20.9253 41.643 22.512 42.6403 23.6C43.6377 24.688 44.9523 25.232 46.5843 25.232C47.6723 25.232 48.579 25.0167 49.3043 24.586C50.0297 24.1327 50.6983 23.5547 51.3103 22.852L52.1263 23.498C51.4917 24.6993 50.6303 25.6627 49.5423 26.388C48.4543 27.0907 47.1397 27.442 45.5983 27.442ZM54.5063 27V25.776L57.0563 25.3C57.079 24.4387 57.0903 23.5093 57.0903 22.512C57.113 21.492 57.1243 20.608 57.1243 19.86V4.934L54.3363 4.594V3.404L59.5383 1.874L60.0143 2.146L59.8783 6.974V13.536C60.717 12.6067 61.6917 11.8587 62.8023 11.292C63.913 10.7027 65.0123 10.408 66.1003 10.408C67.5737 10.408 68.6617 10.9067 69.3643 11.904C70.0897 12.8787 70.4523 14.4767 70.4523 16.698V19.86C70.4523 20.6307 70.4523 21.5147 70.4523 22.512C70.475 23.5093 70.4977 24.4387 70.5203 25.3L72.9003 25.776V27H65.0123V25.776L67.4943 25.334C67.517 24.4727 67.5283 23.5433 67.5283 22.546C67.551 21.526 67.5623 20.6307 67.5623 19.86V16.97C67.5623 15.406 67.347 14.3293 66.9163 13.74C66.4857 13.1507 65.7717 12.856 64.7743 12.856C63.9357 12.856 63.1423 13.026 62.3943 13.366C61.6463 13.706 60.8417 14.2727 59.9803 15.066V19.86C59.9803 20.608 59.9803 21.492 59.9803 22.512C60.003 23.5093 60.0257 24.4387 60.0483 25.3L62.3943 25.776V27H54.5063ZM88.0503 27.34C87.2343 27.34 86.5543 27.102 86.0103 26.626C85.4663 26.15 85.1263 25.5153 84.9903 24.722C84.0609 25.6287 83.2449 26.3087 82.5423 26.762C81.8396 27.2153 80.9896 27.442 79.9923 27.442C78.7456 27.442 77.6689 27.0907 76.7623 26.388C75.8783 25.6627 75.4363 24.5973 75.4363 23.192C75.4363 22.5347 75.5836 21.9227 75.8783 21.356C76.1956 20.7893 76.7623 20.234 77.5783 19.69C78.3943 19.146 79.5616 18.602 81.0803 18.058C81.6016 17.8767 82.2023 17.684 82.8822 17.48C83.5622 17.276 84.2423 17.0947 84.9223 16.936V16.086C84.9223 14.4313 84.6729 13.332 84.1743 12.788C83.6756 12.244 82.8596 11.972 81.7263 11.972C81.4769 11.972 81.1936 11.9833 80.8763 12.006C80.5816 12.0287 80.2529 12.0853 79.8903 12.176L79.2443 14.386C78.9269 15.474 78.3376 16.018 77.4763 16.018C76.5243 16.018 75.9916 15.5533 75.8783 14.624C76.1956 13.332 76.9436 12.312 78.1223 11.564C79.3236 10.7933 80.7856 10.408 82.5083 10.408C84.2989 10.408 85.6249 10.8613 86.4863 11.768C87.3476 12.652 87.7783 14.1707 87.7783 16.324V23.566C87.7783 24.2913 87.8916 24.8127 88.1183 25.13C88.3449 25.4247 88.6396 25.572 89.0023 25.572C89.2969 25.572 89.5463 25.504 89.7503 25.368C89.9543 25.232 90.1469 25.0507 90.3283 24.824L91.0083 25.572C90.6003 26.2293 90.1469 26.694 89.6483 26.966C89.1723 27.2153 88.6396 27.34 88.0503 27.34ZM78.4623 22.682C78.4623 23.5887 78.7229 24.2347 79.2443 24.62C79.7656 25.0053 80.4116 25.198 81.1823 25.198C81.5223 25.198 81.8396 25.1527 82.1343 25.062C82.4516 24.9713 82.8256 24.8013 83.2563 24.552C83.6869 24.28 84.2423 23.8947 84.9223 23.396V18.194C84.3329 18.3527 83.7549 18.534 83.1883 18.738C82.6216 18.9193 82.1569 19.078 81.7943 19.214C80.8196 19.5993 80.0943 19.996 79.6183 20.404C79.1423 20.812 78.8249 21.2087 78.6663 21.594C78.5303 21.9793 78.4623 22.342 78.4623 22.682ZM92.2251 27V25.776L94.7751 25.334C94.7977 24.4727 94.8091 23.5433 94.8091 22.546C94.8317 21.526 94.8431 20.6307 94.8431 19.86V4.934L92.0551 4.594V3.404L97.2571 1.874L97.7331 2.146L97.5971 6.974V13.026C98.4131 12.1193 99.2517 11.462 100.113 11.054C100.997 10.6233 101.904 10.408 102.833 10.408C104.034 10.408 105.122 10.7367 106.097 11.394C107.072 12.0513 107.842 13.0033 108.409 14.25C108.998 15.4967 109.293 17.004 109.293 18.772C109.293 20.5173 108.987 22.0473 108.375 23.362C107.763 24.654 106.924 25.6627 105.859 26.388C104.816 27.0907 103.626 27.442 102.289 27.442C101.496 27.442 100.702 27.272 99.9091 26.932C99.1157 26.592 98.3451 25.9573 97.5971 25.028L97.3251 27.34L92.2251 27ZM101.915 12.346C101.394 12.346 100.793 12.482 100.113 12.754C99.4331 13.026 98.6284 13.5473 97.6991 14.318V23.634C98.4017 24.2913 99.0931 24.7673 99.7731 25.062C100.453 25.3567 101.11 25.504 101.745 25.504C102.946 25.504 103.989 24.9827 104.873 23.94C105.78 22.8747 106.233 21.2427 106.233 19.044C106.233 16.868 105.825 15.2133 105.009 14.08C104.216 12.924 103.184 12.346 101.915 12.346ZM115.264 27.442C114.584 27.442 114.006 27.204 113.53 26.728C113.077 26.252 112.85 25.6853 112.85 25.028C112.85 24.348 113.077 23.77 113.53 23.294C114.006 22.818 114.584 22.58 115.264 22.58C115.944 22.58 116.511 22.818 116.964 23.294C117.44 23.77 117.678 24.348 117.678 25.028C117.678 25.6853 117.44 26.252 116.964 26.728C116.511 27.204 115.944 27.442 115.264 27.442Z" fill="black"/>
</g>
<defs>
<clipPath id="clip0">
<rect width="120" height="32" fill="white"/>
</clipPath>
</defs>
</svg>
